<?xml version="1.0" encoding="UTF-8"?>
<svg id="Layer_2" data-name="Layer 2" xmlns="http://www.w3.org/2000/svg" viewBox="0 0 62.37 101.31">
  <g id="Layer_1-2" data-name="Layer 1">
    <g>
      <path d="M45.83,59.04c-8.77,6.53-15.05,21.6-15.05,21.6,0,0-5.25-13.9-14.24-21.02C5.64,50.98,0,50.66,0,50.66c0,0,8.37,1.67,16.54,14.13,9.44,14.39,14.25,36.53,14.25,36.53,0,0,6-24.79,15.04-37.56,7.5-10.59,16.54-13.09,16.54-13.09,0,0-6.99,1.28-16.54,8.38Z"/>
      <path d="M31.59,20.68s5.25,13.9,14.24,21.02c10.91,8.63,16.54,8.96,16.54,8.96,0,0-8.37-1.67-16.54-14.13C36.39,22.14,31.58,0,31.58,0c0,0-6,24.79-15.04,37.56C9.04,48.15,0,50.66,0,50.66c0,0,6.99-1.28,16.54-8.38,8.77-6.53,15.05-21.6,15.05-21.6Z"/>
      <path d="M28.03,53.7c2.03,3.1,3.07,7.86,3.07,7.86,0,0,1.29-5.33,3.24-8.08,1.61-2.28,3.56-2.82,3.56-2.82,0,0-1.8-.36-3.56-3.04-2.03-3.1-3.07-7.86-3.07-7.86,0,0-1.29,5.33-3.24,8.08-1.61,2.28-3.56,2.82-3.56,2.82,0,0,1.8,.36,3.56,3.04Z"/>
    </g>
  </g>
</svg>