<?xml version="1.0" standalone="no"?>
<!DOCTYPE svg PUBLIC "-//W3C//DTD SVG 20010904//EN"
 "http://www.w3.org/TR/2001/REC-SVG-20010904/DTD/svg10.dtd">
<svg version="1.0" xmlns="http://www.w3.org/2000/svg"
 width="2079.000000pt" height="2079.000000pt" viewBox="0 0 2079.000000 2079.000000"
 preserveAspectRatio="xMidYMid meet">
<metadata>
Created by potrace 1.14, written by Peter Selinger 2001-2017
</metadata>
<g transform="translate(0.000000,2079.000000) scale(0.100000,-0.100000)"
fill="#000000" stroke="none">
<path d="M10431 20632 c-74 -300 -305 -1125 -411 -1467 -15 -49 -40 -130 -55
-180 -194 -647 -467 -1450 -764 -2245 -148 -397 -442 -1109 -598 -1450 -14
-30 -39 -84 -55 -120 -140 -311 -455 -937 -549 -1093 -16 -26 -29 -50 -29 -53
0 -10 -182 -321 -289 -494 -53 -85 -274 -416 -334 -500 -30 -42 -176 -237
-197 -263 -5 -7 -53 -66 -106 -132 -724 -895 -1641 -1625 -2590 -2060 -86 -40
-305 -129 -369 -151 -39 -13 -39 -13 -5 -8 113 19 635 191 825 273 11 5 81 34
155 66 740 313 1559 791 2295 1340 248 185 383 303 630 550 171 171 206 209
380 410 473 545 1033 1382 1481 2210 27 50 61 113 76 140 39 72 360 718 395
795 17 36 56 124 88 195 32 72 61 133 64 137 4 5 31 -52 60 -125 134 -331 403
-900 580 -1225 32 -59 74 -136 93 -172 150 -279 572 -968 600 -978 4 -2 8 -8
8 -13 0 -27 403 -572 579 -784 203 -244 537 -596 721 -761 53 -47 229 -195
285 -240 335 -266 676 -515 1007 -735 117 -78 225 -150 240 -160 15 -11 30
-19 33 -19 3 0 11 -5 18 -10 15 -13 287 -180 293 -180 3 0 21 -11 42 -23 20
-13 69 -41 107 -62 39 -21 93 -51 120 -67 72 -41 425 -217 525 -262 135 -61
449 -186 505 -200 6 -2 17 -6 25 -9 69 -30 427 -114 437 -103 4 3 -1 6 -10 6
-16 0 -200 60 -242 79 -11 5 -36 15 -55 22 -131 48 -462 216 -635 323 -55 35
-344 225 -360 238 -5 5 -28 22 -50 38 -318 238 -503 399 -810 705 -243 242
-478 508 -689 780 -42 55 -83 107 -89 115 -43 53 -289 399 -312 438 -5 9 -13
19 -16 22 -6 5 -145 217 -206 315 -130 206 -350 585 -448 770 -32 61 -67 126
-78 145 -74 130 -354 703 -469 960 -38 85 -80 178 -93 205 -32 70 -72 165
-150 350 -36 88 -73 174 -80 190 -13 30 -175 435 -220 550 -130 335 -301 815
-448 1255 -97 288 -139 421 -275 860 -77 247 -261 899 -337 1195 -26 99 -53
203 -60 230 -21 77 -46 174 -50 193 -2 9 -13 58 -25 107 -12 50 -23 99 -25
110 -13 64 -38 156 -44 159 -4 3 -22 -57 -40 -132z"/>
<path d="M10399 12608 c-2 -36 -77 -296 -159 -549 -120 -371 -308 -795 -451
-1014 -203 -311 -430 -506 -749 -642 l-25 -11 30 -7 c17 -4 68 -27 115 -51
299 -153 573 -478 789 -936 78 -165 84 -178 126 -288 20 -52 41 -104 46 -115
5 -11 13 -33 18 -50 5 -16 21 -60 35 -97 14 -38 22 -68 19 -68 -3 0 -1 -6 5
-12 11 -15 124 -391 124 -418 0 -3 4 -15 9 -28 5 -12 11 -33 13 -45 25 -118
29 -118 60 0 54 202 184 613 221 698 7 17 32 80 55 140 77 198 184 423 270
565 89 147 160 240 270 350 118 119 147 144 240 207 90 60 165 102 242 133
l58 24 -73 29 c-222 92 -449 299 -645 589 -29 42 -52 82 -52 88 0 5 -3 10 -7
10 -5 0 -13 10 -19 23 -6 12 -38 74 -72 137 -150 283 -338 779 -418 1100 -2 8
-11 42 -20 75 -9 33 -17 67 -19 75 -2 8 -8 34 -14 58 -12 42 -20 54 -22 30z"/>
<path d="M4060 10378 c121 -33 352 -125 522 -207 236 -114 603 -339 813 -498
148 -113 198 -152 290 -228 61 -51 122 -103 137 -116 14 -13 61 -55 105 -94
146 -131 438 -427 605 -616 447 -503 959 -1238 1310 -1879 20 -36 47 -85 61
-110 141 -254 392 -749 502 -990 31 -69 77 -167 101 -218 24 -52 44 -95 44
-98 0 -3 24 -57 81 -183 16 -35 39 -87 50 -115 12 -28 29 -69 39 -91 15 -33
72 -170 211 -510 7 -16 13 -32 13 -35 2 -7 26 -71 41 -105 12 -27 89 -228 152
-395 258 -686 577 -1658 787 -2400 65 -231 123 -440 152 -550 2 -8 13 -49 24
-90 36 -140 157 -625 180 -727 13 -57 27 -103 30 -103 4 0 14 33 24 72 9 40
18 80 20 88 3 8 9 33 14 55 16 67 120 447 178 655 31 107 57 202 59 210 19 82
198 675 332 1100 67 212 300 917 313 945 5 11 29 79 53 150 109 317 407 1112
472 1260 7 17 28 66 45 110 35 89 202 487 230 550 10 22 66 148 125 280 175
389 423 893 570 1155 23 41 55 100 72 130 85 155 217 379 288 490 144 224 323
490 367 545 5 6 41 53 80 105 295 392 662 796 998 1100 51 47 102 93 112 103
49 47 368 303 483 388 500 368 1035 667 1500 835 49 18 85 33 80 34 -35 1
-554 -160 -660 -205 -16 -7 -68 -27 -115 -45 -47 -18 -101 -39 -120 -47 -19
-8 -44 -19 -55 -23 -222 -93 -584 -264 -770 -365 -38 -20 -108 -58 -155 -83
-156 -84 -485 -278 -655 -387 -103 -66 -372 -245 -435 -289 -36 -25 -73 -51
-83 -58 -39 -27 -303 -219 -317 -231 -8 -6 -47 -37 -85 -67 -39 -30 -75 -59
-81 -65 -6 -5 -35 -30 -65 -55 -118 -99 -406 -380 -539 -525 -80 -88 -242
-277 -325 -380 -44 -55 -82 -102 -85 -105 -47 -47 -404 -542 -551 -765 -93
-140 -309 -483 -309 -490 0 -2 -13 -23 -29 -47 -30 -45 -266 -455 -341 -593
-130 -239 -421 -816 -489 -967 -38 -85 -63 -142 -92 -205 -16 -34 -36 -79 -44
-100 l-16 -38 -25 60 c-14 33 -33 80 -44 105 -10 25 -33 79 -51 120 -98 233
-189 427 -356 760 -133 266 -177 349 -281 535 -31 55 -63 114 -72 130 -40 75
-234 397 -338 560 -404 633 -799 1134 -1236 1570 -245 245 -337 327 -594 528
-410 322 -750 564 -1197 852 -76 50 -372 227 -440 265 -33 18 -107 59 -165 91
-462 256 -1021 479 -1388 554 -81 17 -116 19 -62 3z"/>
</g>
</svg>
